<?xml version="1.0" encoding="UTF-8" standalone="no"?>
<svg
   viewBox="0 0 27.99657 27.996571"
   x="0px"
   y="0px"
   version="1.1"
   id="svg22"
   sodipodi:docname="icon.svg"
   width="27.996571"
   height="27.996571"
   inkscape:version="1.1 (c68e22c387, 2021-05-23)"
   inkscape:export-filename="C:\Users\Anna\Desktop\tourist.png"
   inkscape:export-xdpi="1755.6436"
   inkscape:export-ydpi="1755.6436"
   xmlns:inkscape="http://www.inkscape.org/namespaces/inkscape"
   xmlns:sodipodi="http://sodipodi.sourceforge.net/DTD/sodipodi-0.dtd"
   xmlns="http://www.w3.org/2000/svg"
   xmlns:svg="http://www.w3.org/2000/svg"
   xmlns:rdf="http://www.w3.org/1999/02/22-rdf-syntax-ns#"
   xmlns:cc="http://creativecommons.org/ns#"
   xmlns:dc="http://purl.org/dc/elements/1.1/">
  <defs
     id="defs26" />
  <sodipodi:namedview
     id="namedview24"
     pagecolor="#505050"
     bordercolor="#ffffff"
     borderopacity="1"
     inkscape:pageshadow="0"
     inkscape:pageopacity="0"
     inkscape:pagecheckerboard="1"
     showgrid="false"
     width="27.99657px"
     inkscape:zoom="14.707821"
     inkscape:cx="14.584077"
     inkscape:cy="15.739925"
     inkscape:window-width="1920"
     inkscape:window-height="1017"
     inkscape:window-x="1592"
     inkscape:window-y="32"
     inkscape:window-maximized="1"
     inkscape:current-layer="layer2" />
  <title
     id="title2">Sightseeing</title>
  <metadata
     id="metadata843">
    <rdf:RDF>
      <cc:Work
         rdf:about="">
        <dc:title>Sightseeing</dc:title>
      </cc:Work>
    </rdf:RDF>
  </metadata>
  <g
     inkscape:groupmode="layer"
     id="layer2"
     inkscape:label="Layer 2"
     transform="translate(-2.0017142,-2.01)">
    <path
       style="fill:#552200;stroke:none;stroke-width:0.0135982;stroke-miterlimit:4;stroke-dasharray:none;stroke-opacity:1"
       d="m 15.969792,2.4279296 c -0.774083,-0.00125 -1.510254,0.6769157 -1.429213,1.4797759 -0.09091,4.9471004 -0.02873,9.8961755 -0.04831,14.8440485 0.01327,3.471208 -0.0268,6.950417 0.01974,10.416632 0.125357,0.634088 0.902377,0.388302 1.363902,0.434977 0.485097,-0.05553 1.055716,0.131326 1.479144,-0.139201 0.348141,-0.411293 0.10334,-1.020295 0.176677,-1.51662 -0.0153,-7.827633 0.03324,-15.655677 -0.03108,-23.4830463 0.015,-0.6386617 -0.03247,-1.3929433 -0.628916,-1.7746944 -0.260429,-0.185667 -0.583911,-0.2713335 -0.901944,-0.2618717 z"
       id="path2093" />
    <path
       style="fill:#803300;stroke:none;stroke-width:0.0135982;stroke-miterlimit:4;stroke-dasharray:none;stroke-opacity:1"
       d="m 17.635971,13.730908 c -0.409991,0.409644 -0.144734,1.053347 -0.220307,1.570301 0.02601,1.06129 -0.05241,2.13825 0.03991,3.189591 0.192166,0.586482 0.947461,0.303934 1.41194,0.369979 2.239805,-0.0133 4.487593,0.0266 6.722408,-0.01995 0.513886,-0.153434 0.724755,-0.750774 1.104618,-1.096198 0.337751,-0.451313 0.784272,-0.843191 1.021768,-1.358483 0.0394,-0.5607 -0.532243,-0.901713 -0.804633,-1.332592 -0.426431,-0.421138 -0.70643,-1.046942 -1.261199,-1.298875 -2.573366,-0.16218 -5.156325,-0.07519 -7.733642,-0.109289 -0.09362,0.02851 -0.187241,0.05701 -0.280861,0.08552 z"
       id="path3084" />
    <path
       style="fill:#803300;stroke:none;stroke-width:0.0135982;stroke-miterlimit:4;stroke-dasharray:none;stroke-opacity:1"
       d="m 4.5204739,13.731572 c -0.6478711,0.72126 -1.2818157,1.472008 -1.8784125,2.232714 -0.2877621,0.557488 0.4201337,0.941261 0.6715227,1.364583 0.4434784,0.470386 0.7638264,1.077668 1.3011742,1.443734 3.1615759,0.04717 6.3294047,0.0067 9.4933807,0.02019 0.634756,-0.06314 0.494504,-0.796206 0.499974,-1.247875 -0.02674,-1.174499 0.0534,-2.365035 -0.03991,-3.529545 -0.192166,-0.586482 -0.94746,-0.303934 -1.411939,-0.36998 -2.805678,0.01337 -5.6193691,-0.02666 -8.4200595,0.01995 -0.071911,0.02208 -0.1438211,0.04415 -0.2157316,0.06623 z"
       id="path3123" />
    <path
       style="fill:#803300;stroke:none;stroke-width:0.0135982;stroke-miterlimit:4;stroke-dasharray:none;stroke-opacity:1"
       d="m 17.634909,5.2326926 c -0.40847,0.4102026 -0.14376,1.0528879 -0.219245,1.5696369 0.02601,1.06129 -0.05241,2.1382496 0.03991,3.1895906 0.192166,0.5864819 0.947461,0.3039339 1.41194,0.3699789 2.801382,-0.01338 5.610783,0.02667 8.407178,-0.01995 C 27.79152,10.187637 27.993706,9.5801553 28.370387,9.2289519 28.714631,8.7387635 29.229579,8.3151631 29.379032,7.7178182 29.325488,7.1824631 28.778899,6.8631738 28.511539,6.4275523 28.099233,6.0168195 27.837135,5.3957671 27.29444,5.1570515 c -3.124764,-0.024619 -6.252788,-0.00348 -9.378803,-0.010543 -0.09358,0.028728 -0.187152,0.057456 -0.280728,0.086184 z"
       id="path3162" />
    <path
       style="fill:#803300;stroke:none;stroke-width:0.0135982;stroke-miterlimit:4;stroke-dasharray:none;stroke-opacity:1"
       d="M 10.249249,5.1499614 C 8.965104,5.1645004 7.6728932,5.1256132 6.3937698,5.1734244 5.8805609,5.3280854 5.6713335,5.9242456 5.2947979,6.2734053 4.9510235,6.7517277 4.4583156,7.1395796 4.2303168,7.6879393 4.3248988,8.2805582 4.913499,8.6336089 5.2261465,9.1190709 5.633006,9.5148267 5.8866364,10.127097 6.4220903,10.35178 c 2.5585815,0.01027 5.1282697,0.02996 7.6830547,-0.0098 0.634088,-0.125357 0.388301,-0.9023774 0.434977,-1.3639024 -0.0261,-1.1519316 0.05253,-2.3195767 -0.03991,-3.4615548 -0.192253,-0.5867517 -0.947755,-0.3035361 -1.412337,-0.3691121 -0.946209,8.619e-4 -1.892418,0.00172 -2.838627,0.00259 z"
       id="path3201" />
  </g>
  <g
     inkscape:groupmode="layer"
     id="layer1"
     inkscape:label="Layer 1"
     transform="translate(-2.0017142,-2.01)">
    <g
       id="g16"
       style="stroke:none;stroke-width:0.2;stroke-miterlimit:4;stroke-dasharray:none;stroke-opacity:1"
       transform="translate(0,0.00322577)">
      <path
         d="m 27.45,10.71 a 0.42,0.42 0 0 0 0.33,-0.16 L 29.9,8 a 0.42,0.42 0 0 0 0,-0.54 L 27.78,4.93 A 0.41,0.41 0 0 0 27.45,4.78 H 17.91 V 3.92 a 1.91,1.91 0 1 0 -3.82,0 V 4.78 H 6.25 A 0.41,0.41 0 0 0 5.92,4.93 L 3.8,7.47 A 0.42,0.42 0 0 0 3.8,8 l 2.12,2.54 a 0.42,0.42 0 0 0 0.33,0.16 h 7.84 v 2.54 H 4.55 A 0.42,0.42 0 0 0 4.22,13.4 L 2.1,16 a 0.42,0.42 0 0 0 0,0.54 L 4.22,19 a 0.41,0.41 0 0 0 0.33,0.15 h 9.54 v 10 h -3.18 a 0.43,0.43 0 0 0 -0.43,0.43 0.42,0.42 0 0 0 0.43,0.42 h 10.18 a 0.42,0.42 0 0 0 0.43,-0.42 0.43,0.43 0 0 0 -0.43,-0.43 h -3.18 v -10 h 7.85 A 0.44,0.44 0 0 0 26.09,19 l 2.12,-2.54 a 0.45,0.45 0 0 0 0,-0.54 l -2.12,-2.55 a 0.45,0.45 0 0 0 -0.33,-0.16 h -7.85 v -2.5 z M 27.26,5.62 29,7.73 27.26,9.86 H 17.91 V 5.62 Z M 6.44,9.86 4.67,7.73 6.44,5.62 h 7.65 V 9.86 Z M 4.75,18.35 3,16.22 4.77,14.11 h 9.34 v 4.24 z m 10.19,10.8 V 3.92 a 1.06,1.06 0 1 1 2.12,0 v 25.23 z m 10.62,-15 1.77,2.11 -1.77,2.13 h -7.65 v -4.28 z"
         id="path4"
         style="stroke:none;stroke-width:0.2;stroke-miterlimit:4;stroke-dasharray:none;stroke-opacity:1" />
      <path
         d="m 19.78,8.16 h 1.7 a 0.42,0.42 0 1 0 0,-0.84 h -1.7 a 0.42,0.42 0 1 0 0,0.84 z"
         id="path6"
         style="stroke:none;stroke-width:0.2;stroke-miterlimit:4;stroke-dasharray:none;stroke-opacity:1" />
      <path
         d="m 23.18,8.16 h 3.44 a 0.42,0.42 0 1 0 0,-0.84 h -3.44 a 0.41,0.41 0 0 0 -0.42,0.41 0.42,0.42 0 0 0 0.42,0.43 z"
         id="path8"
         style="stroke:none;stroke-width:0.2;stroke-miterlimit:4;stroke-dasharray:none;stroke-opacity:1" />
      <path
         d="M 11.78,7.32 H 7.85 a 0.42,0.42 0 1 0 0,0.84 h 3.93 A 0.42,0.42 0 0 0 12.2,7.73 0.41,0.41 0 0 0 11.78,7.32 Z"
         id="path10"
         style="stroke:none;stroke-width:0.2;stroke-miterlimit:4;stroke-dasharray:none;stroke-opacity:1" />
      <path
         d="M 8.17,15.81 H 5.63 A 0.42,0.42 0 0 0 5.2,16.22 0.43,0.43 0 0 0 5.63,16.65 H 8.17 A 0.43,0.43 0 0 0 8.6,16.22 0.42,0.42 0 0 0 8.17,15.81 Z"
         id="path12"
         style="stroke:none;stroke-width:0.2;stroke-miterlimit:4;stroke-dasharray:none;stroke-opacity:1" />
      <path
         d="M 12.41,15.81 H 9.87 a 0.41,0.41 0 0 0 -0.42,0.41 0.42,0.42 0 0 0 0.42,0.43 h 2.54 a 0.43,0.43 0 0 0 0.43,-0.43 0.42,0.42 0 0 0 -0.43,-0.41 z"
         id="path14"
         style="stroke:none;stroke-width:0.2;stroke-miterlimit:4;stroke-dasharray:none;stroke-opacity:1" />
    </g>
  </g>
</svg>
